{"title":"Sucker Punch *2011*[BluRay][1080p][ENG, POL]","uid":6568191,"size":8832199383,"categoryP":"video","categoryS":"hd___movies","magnet":"?xt=urn:btih:8d65146e251cf9c00c9e15f76b3d916b6e23406b&amp;dn=Sucker+Punch+%2A2011%2A%5BBluRay%5D%5B1080p%5D%5BENG%2C+POL%5D&amp;tr=udp%3A%2F%2Ftracker.openbittorrent.com%3A80&amp;tr=udp%3A%2F%2Fopen.demonii.com%3A1337&amp;tr=udp%3A%2F%2Ftracker.coppersurfer.tk%3A6969&amp;tr=udp%3A%2F%2Fexodus.desync.com%3A6969","seeders":0,"leechers":1,"uploader":"albedo040","files":1,"time":1311724849,"description":"Sucker Punch *2011*[BluRay][1080p][ENG, POL]\n\nGeneral information:\nCountry: USA, Canada\nRelease: 21 March 2011\nGenre: Action, Adventure, Fantasy, Thriller \nDirector: Zack Snyder\nScreenplay: Zack Snyder, Steve Shibuya\nOriginal Music: Tyler Bates, Marius De Vries\nCinematography by: Larry Fong\nDuration: 1h 49mn\nLanguage: English, Polish \nSubtitles: English, Polish \nRating: - 6.4 - 10179 votes\n\n\nCast:\nEmily Browning\t...Baby Doll\nAbbie Cornish ...Sweet Pea\nJena Malone ...Rocket\nVanessa Hudgens\t...Blondie\nJamie Chung ...Amber\nCarla Gugino ...Dr. Vera Gorski\nOscar Isaac ...Blue Jones\nJon Hamm ...High Roller / Doctor\nScott Glenn ...Wise Man\nRichard Cetrone ...CJ\nGerard Plunkett ...Stepfather\nMalcolm Scott ...The Cook\nRon Selmour ...Danforth\nAlan C. Peterson ...Mayor / Lighter Orderly (as AC Peterson)\nRevard Dufresne ...Big Boss Thug / Orderly 3\n\nPlot:\nA young girl is institutionalized by her abusive stepfather. Retreating to an alternative reality as a coping strategy, she envisions a plan which will help her escape from the mental facility.\n\nSpecifications:\nFormat                           : Matroska\nFormat version                   : Version 2\nOverall bit rate                 : 10.7 Mbps\n\nVideo\nFormat                           : AVC\nFormat/Info                      : Advanced Video Codec\nFormat profile                   : &lt;a class=&quot;__cf_email__&quot; href=&quot;/cdn-cgi/l/email-protection&quot; data-cfemail=&quot;a4eccdc3cce4e8908a95&quot;&gt;[email&amp;#160;protected]&lt;/a&gt;&lt;script cf-hash='f9e31' type=&quot;text/javascript&quot;&gt;\n/* &lt;![CDATA[ */!function(){try{var t=&quot;currentScript&quot;in document?document.currentScript:function(){for(var t=document.getElementsByTagName(&quot;script&quot;),e=t.length;e--;)if(t[e].getAttribute(&quot;cf-hash&quot;))return t[e]}();if(t&amp;&amp;t.previousSibling){var e,r,n,i,c=t.previousSibling,a=c.getAttribute(&quot;data-cfemail&quot;);if(a){for(e=&quot;&quot;,r=parseInt(a.substr(0,2),16),n=2;a.length-n;n+=2)i=parseInt(a.substr(n,2),16)^r,e+=String.fromCharCode(i);e=document.createTextNode(e),c.parentNode.replaceChild(e,c)}}}catch(u){}}();/* ]]&gt; */&lt;/script&gt;\nFormat settings, CABAC           : Yes\nFormat settings, ReFrames        : 5 frames\nMuxing mode                      : Header stripping\nCodec ID                         : V_MPEG4/ISO/AVC\nBit rate mode                    : Variable\nBit rate                         : 8 839 Kbps\nMaximum bit rate                 : 40.0 Mbps\nWidth                            : 1 920 pixels\nHeight                           : 800 pixels\nDisplay aspect ratio             : 2.40:1\nFrame rate                       : 23.976 fps\n\nAudio 1\nFormat                           : DTS\nFormat/Info                      : Digital Theater Systems\nMuxing mode                      : Header stripping\nCodec ID                         : A_DTS\nBit rate mode                    : Constant\nBit rate                         : 1 510 Kbps\nChannel(s)                       : 6 channels\nChannel positions                : Front: L C R, Side: L R, LFE\nSampling rate                    : 48.0 KHz\nBit depth                        : 24 bits\nCompression mode                 : Lossy\nStream size                      : 1.16 GiB (14%)\nTitle                            : English\nLanguage                         : English\n\nAudio 2\nFormat                           : AC-3\nFormat/Info                      : Audio Coding 3\nMode extension                   : CM (complete main)\nMuxing mode                      : Header stripping\nCodec ID                         : A_AC3\nBit rate mode                    : Constant\nBit rate                         : 384 Kbps\nChannel(s)                       : 6 channels\nChannel positions                : Front: L C R, Side: L R, LFE\nSampling rate                    : 48.0 KHz\nBit depth                        : 16 bits\nCompression mode                 : Lossy\nStream size                      : 301 MiB (4%)\nTitle                            : Polish\nLanguage                         : Polish\n\nText 1\nFormat                           : UTF-8\nCodec ID                         : S_TEXT/UTF8\nCodec ID/Info                    : UTF-8 Plain Text\nTitle                            : English\nLanguage                         : English\n\nText 2\nFormat                           : UTF-8\nCodec ID                         : S_TEXT/UTF8\nCodec ID/Info                    : UTF-8 Plain Text\nTitle                            : Polish\nLanguage                         : Polish\n","torrent":{"xt":"urn:btih:8d65146e251cf9c00c9e15f76b3d916b6e23406b","amp;dn":"Sucker+Punch+%2A2011%2A%5BBluRay%5D%5B1080p%5D%5BENG%2C+POL%5D","amp;tr":["udp%3A%2F%2Ftracker.openbittorrent.com%3A80","udp%3A%2F%2Fopen.demonii.com%3A1337","udp%3A%2F%2Ftracker.coppersurfer.tk%3A6969","udp%3A%2F%2Fexodus.desync.com%3A6969"],"infoHash":"8d65146e251cf9c00c9e15f76b3d916b6e23406b","infoHashBuffer":{"type":"Buffer","data":[141,101,20,110,37,28,249,192,12,158,21,247,107,61,145,107,110,35,64,107]},"announce":[],"urlList":[]}}